<svg width="134" height="72" viewBox="0 0 134 72" fill="none" xmlns="http://www.w3.org/2000/svg">
<path d="M128.62 30.7346C125.488 31.0624 122.355 31.3826 119.223 31.7198C114.211 32.2579 109.203 32.8548 104.186 33.3247C102.659 33.4687 101.098 33.3455 99.559 33.228C97.1621 33.0442 96.4497 30.8691 96.9367 29.088C97.2038 28.1141 97.5544 27.1649 97.8196 26.191C98.2611 24.5653 97.7438 23.8017 96.1049 23.5384C93.7383 23.1594 91.4173 23.2598 89.0735 23.8396C86.1423 24.5653 83.1127 24.9215 80.2213 25.7666C74.9028 27.324 69.6013 28.9744 64.3889 30.852C55.3794 34.0996 46.8398 38.395 38.4632 43.0143C37.62 43.4805 36.8072 44.0735 36.127 44.7575C29.2889 51.6392 22.032 58.0567 14.4607 64.1103C11.3173 66.6228 7.9333 68.8377 4.63835 71.1569C4.1893 71.4733 3.63225 71.6988 3.09225 71.8049C2.15056 71.9887 1.53098 71.3085 1.95541 70.4615C2.61288 69.1485 3.34425 67.8316 4.27267 66.7042C7.87646 62.3198 12.1093 58.5834 16.5676 55.0914C22.3636 50.5516 28.548 46.6181 34.9655 43.0181C36.2445 42.3 37.3036 41.1158 38.3116 40.0074C42.4384 35.4657 46.1577 30.619 48.9051 25.0977C50.3394 22.212 51.5899 19.2297 51.9897 16.0049C52.6984 10.2866 50.8642 5.83014 44.6344 3.3973C40.4792 1.7754 36.1895 1.72235 31.8714 2.50677C27.739 3.25709 23.6729 4.31814 19.8569 6.0992C14.6085 8.55098 9.55709 11.3457 5.76004 15.8912C4.01309 17.983 2.50867 20.2396 1.84362 22.9434C1.47414 24.4421 2.12404 25.8518 3.62088 26.2232C4.84298 26.5264 6.16362 26.4146 7.4312 26.5642C7.80825 26.6097 8.15688 26.9129 8.51688 27.0986C8.29519 27.4093 8.14172 27.8546 7.83856 28.0099C5.38488 29.2624 1.15204 27.5457 0.276669 25.0068C-0.212173 23.5895 0.134564 22.303 0.695406 20.9861C2.25667 17.3312 4.75583 14.3925 7.68509 11.7967C12.6739 7.37435 18.4832 4.42046 24.8097 2.42719C28.4192 1.29035 32.0628 0.342986 35.8845 0.30888C39.8047 0.274775 43.6169 0.767406 47.1487 2.60909C51.3341 4.79183 53.5927 8.17014 53.7158 12.9733C53.8598 18.6272 51.7415 23.5687 49.0718 28.351C47.035 31.9984 44.4771 35.2762 41.8131 38.4783C41.6748 38.6451 41.6672 38.9179 41.5971 39.1415C41.8775 39.115 42.192 39.1605 42.4327 39.0506C48.5242 36.2293 54.5438 33.2451 60.7074 30.5962C67.6383 27.6177 74.8327 25.3402 82.1596 23.5384C86.0741 22.5758 90.0417 21.8179 94.0965 21.7762C95.1272 21.7649 96.1731 21.9089 97.1887 22.1097C99.2482 22.5152 100.167 23.9798 99.6594 25.9958C99.4131 26.9735 99.0663 27.9247 98.7575 28.8853C98.2023 30.6114 98.8901 31.7085 100.702 31.6327C103.815 31.5019 106.922 31.231 110.027 30.9714C112.098 30.799 114.162 30.5318 116.229 30.3291C119.082 30.0487 121.934 29.6887 124.795 29.5466C127.44 29.4158 130.095 29.5257 132.747 29.5314C133.244 29.5333 133.782 29.575 133.759 30.2287C133.736 30.8672 133.204 30.8842 132.706 30.8824C131.349 30.8767 129.99 30.8805 128.634 30.8805C128.632 30.8331 128.626 30.7838 128.62 30.7346ZM5.36783 68.2504C7.79309 67.8733 29.4158 50.0685 30.0392 47.9217C29.6394 48.0904 29.3249 48.1813 29.0539 48.3442C28.027 48.9619 26.9773 49.5474 26.0053 50.2447C22.9339 52.4464 19.8626 54.648 16.8537 56.9312C12.8217 59.9893 9.16867 63.4642 5.88888 67.3219C5.68614 67.5588 5.57435 67.8752 5.36783 68.2504Z" fill="#131520"/>
<path d="M92.2245 9.82425C91.4628 9.8792 90.3714 8.88636 90.4832 8.30278C90.5495 7.95983 90.9323 7.53162 91.2638 7.42362C91.7963 7.2512 92.8251 8.33309 92.7455 8.98299C92.7038 9.31646 92.3628 9.61204 92.2245 9.82425Z" fill="#131520"/>
</svg>
